<svg id="visual" viewBox="0 0 900 600" width="900" height="600" xmlns="http://www.w3.org/2000/svg" xmlns:xlink="http://www.w3.org/1999/xlink" version="1.1"><rect x="0" y="0" width="900" height="600" fill="#E9ECEF"></rect><defs><linearGradient id="grad1_0" x1="33.3%" y1="100%" x2="100%" y2="0%"><stop offset="20%" stop-color="#e9ecef" stop-opacity="1"></stop><stop offset="80%" stop-color="#e9ecef" stop-opacity="1"></stop></linearGradient></defs><defs><linearGradient id="grad2_0" x1="0%" y1="100%" x2="66.7%" y2="0%"><stop offset="20%" stop-color="#e9ecef" stop-opacity="1"></stop><stop offset="80%" stop-color="#e9ecef" stop-opacity="1"></stop></linearGradient></defs><g transform="translate(900, 600)"><path d="M-351.5 0C-331.6 -41.2 -311.7 -82.3 -293.8 -121.7C-275.9 -161.1 -259.9 -198.6 -234.8 -234.8C-209.6 -270.9 -175.2 -305.6 -134.5 -324.8C-93.9 -344 -46.9 -347.8 0 -351.5L0 0Z" fill="#190e4f"></path></g><g transform="translate(0, 0)"><path d="M351.5 0C334.6 40.2 317.7 80.5 304 125.9C290.3 171.3 279.8 221.9 248.6 248.6C217.4 275.2 165.4 277.9 120.5 291C75.7 304.2 37.8 327.9 0 351.5L0 0Z" fill="#190e4f"></path></g></svg>