<svg id="visual" viewBox="0 0 900 600" width="900" height="600" xmlns="http://www.w3.org/2000/svg" xmlns:xlink="http://www.w3.org/1999/xlink" version="1.1"><rect x="0" y="0" width="900" height="600" fill="#190E4F"></rect><path d="M0 425L30 420.2C60 415.3 120 405.7 180 396.2C240 386.7 300 377.3 360 376.2C420 375 480 382 540 389.3C600 396.7 660 404.3 720 403.5C780 402.7 840 393.3 870 388.7L900 384L900 601L870 601C840 601 780 601 720 601C660 601 600 601 540 601C480 601 420 601 360 601C300 601 240 601 180 601C120 601 60 601 30 601L0 601Z" fill="#ea638c"></path><path d="M0 442L30 435.7C60 429.3 120 416.7 180 408.5C240 400.3 300 396.7 360 396.8C420 397 480 401 540 403.5C600 406 660 407 720 414C780 421 840 434 870 440.5L900 447L900 601L870 601C840 601 780 601 720 601C660 601 600 601 540 601C480 601 420 601 360 601C300 601 240 601 180 601C120 601 60 601 30 601L0 601Z" fill="#e35d8b"></path><path d="M0 428L30 426.8C60 425.7 120 423.3 180 425C240 426.7 300 432.3 360 435.7C420 439 480 440 540 440.2C600 440.3 660 439.7 720 442.8C780 446 840 453 870 456.5L900 460L900 601L870 601C840 601 780 601 720 601C660 601 600 601 540 601C480 601 420 601 360 601C300 601 240 601 180 601C120 601 60 601 30 601L0 601Z" fill="#db578a"></path><path d="M0 477L30 473.8C60 470.7 120 464.3 180 459.2C240 454 300 450 360 455.2C420 460.3 480 474.7 540 480.8C600 487 660 485 720 483.2C780 481.3 840 479.7 870 478.8L900 478L900 601L870 601C840 601 780 601 720 601C660 601 600 601 540 601C480 601 420 601 360 601C300 601 240 601 180 601C120 601 60 601 30 601L0 601Z" fill="#d45189"></path><path d="M0 468L30 473.7C60 479.3 120 490.7 180 495C240 499.3 300 496.7 360 491.5C420 486.3 480 478.7 540 479.2C600 479.7 660 488.3 720 493.5C780 498.7 840 500.3 870 501.2L900 502L900 601L870 601C840 601 780 601 720 601C660 601 600 601 540 601C480 601 420 601 360 601C300 601 240 601 180 601C120 601 60 601 30 601L0 601Z" fill="#cc4b89"></path><path d="M0 531L30 531.3C60 531.7 120 532.3 180 530.7C240 529 300 525 360 519.7C420 514.3 480 507.7 540 508C600 508.3 660 515.7 720 516C780 516.3 840 509.7 870 506.3L900 503L900 601L870 601C840 601 780 601 720 601C660 601 600 601 540 601C480 601 420 601 360 601C300 601 240 601 180 601C120 601 60 601 30 601L0 601Z" fill="#c44688"></path><path d="M0 525L30 526.7C60 528.3 120 531.7 180 536.8C240 542 300 549 360 548.7C420 548.3 480 540.7 540 538.5C600 536.3 660 539.7 720 540.2C780 540.7 840 538.3 870 537.2L900 536L900 601L870 601C840 601 780 601 720 601C660 601 600 601 540 601C480 601 420 601 360 601C300 601 240 601 180 601C120 601 60 601 30 601L0 601Z" fill="#bc4187"></path><path d="M0 563L30 563.3C60 563.7 120 564.3 180 564.2C240 564 300 563 360 563C420 563 480 564 540 564.5C600 565 660 565 720 564C780 563 840 561 870 560L900 559L900 601L870 601C840 601 780 601 720 601C660 601 600 601 540 601C480 601 420 601 360 601C300 601 240 601 180 601C120 601 60 601 30 601L0 601Z" fill="#b33c86"></path></svg>